<?xml version="1.0" encoding="utf-8"?>
<!-- Svg Vector Icons : http://www.onlinewebfonts.com/icon -->
<!DOCTYPE svg PUBLIC "-//W3C//DTD SVG 1.1//EN" "http://www.w3.org/Graphics/SVG/1.1/DTD/svg11.dtd">
<svg version="1.1" xmlns="http://www.w3.org/2000/svg" xmlns:xlink="http://www.w3.org/1999/xlink" x="0px" y="0px" viewBox="0 0 1000 1000" enable-background="new 0 0 1000 1000" xml:space="preserve">
<metadata> Svg Vector Icons : http://www.onlinewebfonts.com/icon </metadata>
<g><path d="M514.4,219.8c-22.1,0-39.9,17.9-39.9,39.9v265.2c0,22.1,17.9,39.9,39.9,39.9h281.1c22.1,0,39.9-17.9,39.9-39.9c0-22.1-17.9-39.9-39.9-39.9H554.3V259.8C554.3,237.7,536.5,219.8,514.4,219.8z"/><path d="M539.3,49.3C290.8,49.3,88.7,251.5,88.7,500v0H10l119.5,144.5L249.1,500h-80.5v0c0-204.4,166.3-370.8,370.8-370.8c204.4,0,370.8,166.3,370.8,370.8c0,204.4-166.3,370.8-370.8,370.8c-123,0-237.8-61.1-307-163.5c-12.4-18.3-37.2-23.1-55.5-10.7c-18.3,12.4-23.1,37.2-10.7,55.5c84.1,124.4,223.6,198.7,373.2,198.7C787.8,950.7,990,748.5,990,500C990,251.5,787.8,49.3,539.3,49.3z"/></g>
</svg>